<svg xmlns="http://www.svg.org/2000/svg" viewBox="0 0 512 512" fill="#87CEEB"><path d="M464 48H48C21.5 48 0 69.5 0 96v320c0 26.5 21.5 48 48 48h416c26.5 48 48-21.5 48-48V96c0-26.5-21.5-48-48-48zM176 352h-48c-8.8 0-16-7.2-16-16s7.2-16 16-16h48c8.8 0 16 7.2 16 16s-7.2 16-16 16zm0-80h-48c-8.8 0-16-7.2-16-16s7.2-16 16-16h48c8.8 0 16 7.2 16 16s-7.2 16-16 16zm0-80h-48c-8.8 0-16-7.2-16-16s7.2-16 16-16h48c8.8 0 16 7.2 16 16s-7.2 16-16 16zm208 160h-144c-8.8 0-16-7.2-16-16s7.2-16 16-16h144c8.8 0 16 7.2 16 16s-7.2 16-16 16zm0-80h-144c-8.8 0-16-7.2-16-16s7.2-16 16-16h144c8.8 0 16 7.2 16 16s-7.2 16-16 16zm0-80h-144c-8.8 0-16-7.2-16-16s7.2-16 16-16h144c8.8 0 16 7.2 16 16s-7.2 16-16 16z"/></svg>
